<svg width="24" height="24" viewBox="0 0 24 24" fill="none" xmlns="http://www.w3.org/2000/svg">
<path d="M12.7069 12L19.8534 19.1454C19.8999 19.1919 19.9367 19.2471 19.9619 19.3078C19.9871 19.3686 20 19.4337 20 19.4994C20 19.5651 19.9871 19.6302 19.9619 19.691C19.9367 19.7517 19.8999 19.8069 19.8534 19.8534C19.8069 19.8999 19.7517 19.9367 19.691 19.9619C19.6302 19.9871 19.5651 20 19.4994 20C19.4337 20 19.3686 19.9871 19.3078 19.9619C19.2471 19.9367 19.1919 19.8999 19.1454 19.8534L12 12.7069L4.85456 19.8534C4.76068 19.9473 4.63336 20 4.50059 20C4.36783 20 4.2405 19.9473 4.14662 19.8534C4.05274 19.7595 4 19.6322 4 19.4994C4 19.3666 4.05274 19.2393 4.14662 19.1454L11.2931 12L4.14662 4.85456C4.10014 4.80808 4.06326 4.7529 4.03811 4.69216C4.01295 4.63143 4 4.56633 4 4.50059C4 4.43485 4.01295 4.36976 4.03811 4.30902C4.06326 4.24829 4.10014 4.1931 4.14662 4.14662C4.1931 4.10014 4.24829 4.06326 4.30902 4.03811C4.36976 4.01295 4.43485 4 4.50059 4C4.56633 4 4.63143 4.01295 4.69216 4.03811C4.7529 4.06326 4.80808 4.10014 4.85456 4.14662L12 11.2931L19.1454 4.14662C19.2393 4.05274 19.3666 4 19.4994 4C19.6322 4 19.7595 4.05274 19.8534 4.14662C19.9473 4.2405 20 4.36783 20 4.50059C20 4.63336 19.9473 4.76068 19.8534 4.85456L12.7069 12Z" fill="#00FF84"/>
</svg>
