<svg width="24" height="24" viewBox="0 0 24 24" fill="none" xmlns="http://www.w3.org/2000/svg">
<path fill-rule="evenodd" clip-rule="evenodd" d="M2 5.5C2 5.63261 2.05268 5.75979 2.14645 5.85355C2.24021 5.94732 2.36739 6 2.5 6H21.5C21.6326 6 21.7598 5.94732 21.8536 5.85355C21.9473 5.75979 22 5.63261 22 5.5C22 5.36739 21.9473 5.24021 21.8536 5.14645C21.7598 5.05268 21.6326 5 21.5 5H2.5C2.36739 5 2.24021 5.05268 2.14645 5.14645C2.05268 5.24021 2 5.36739 2 5.5V5.5ZM2.5 12C2.36739 12 2.24021 11.9473 2.14645 11.8536C2.05268 11.7598 2 11.6326 2 11.5C2 11.3674 2.05268 11.2402 2.14645 11.1464C2.24021 11.0527 2.36739 11 2.5 11H17.5C17.6326 11 17.7598 11.0527 17.8536 11.1464C17.9473 11.2402 18 11.3674 18 11.5C18 11.6326 17.9473 11.7598 17.8536 11.8536C17.7598 11.9473 17.6326 12 17.5 12H2.5ZM2.5 18C2.36739 18 2.24021 17.9473 2.14645 17.8536C2.05268 17.7598 2 17.6326 2 17.5C2 17.3674 2.05268 17.2402 2.14645 17.1464C2.24021 17.0527 2.36739 17 2.5 17H21.5C21.6326 17 21.7598 17.0527 21.8536 17.1464C21.9473 17.2402 22 17.3674 22 17.5C22 17.6326 21.9473 17.7598 21.8536 17.8536C21.7598 17.9473 21.6326 18 21.5 18H2.5Z" fill="white"/>
</svg>
