<svg width="40" height="41" viewBox="0 0 40 41" fill="none" xmlns="http://www.w3.org/2000/svg">
                                <path fill-rule="evenodd" clip-rule="evenodd" d="M20.001 23.7578C22.071 23.7578 23.751 22.0778 23.751 20.0078C23.751 17.9378 22.071 16.2578 20.001 16.2578C17.931 16.2578 16.251 17.9378 16.251 20.0078C16.251 22.0778 17.931 23.7578 20.001 23.7578Z" fill="#dcdee1"></path>
                                <path fill-rule="evenodd" clip-rule="evenodd" d="M25.8291 20.0078C25.8291 23.2298 23.2211 25.8378 19.9991 25.8378C16.7771 25.8378 14.1691 23.2298 14.1691 20.0078C14.1691 19.5778 14.2071 19.1578 14.2951 18.7578H12.0791V27.5078C12.0791 27.7418 12.2651 27.9278 12.4991 27.9278H27.4991C27.7331 27.9278 27.9191 27.7418 27.9191 27.5078V18.7578H25.7031C25.7891 19.1578 25.8291 19.5778 25.8291 20.0078Z" fill="#dcdee1"></path>
                                <path fill-rule="evenodd" clip-rule="evenodd" d="M30.001 27.0878C30.001 28.6998 28.693 30.0078 27.081 30.0078H12.921C11.309 30.0078 10.001 28.6998 10.001 27.0878V12.9278C10.001 11.3158 11.309 10.0078 12.921 10.0078H27.081C28.693 10.0078 30.001 11.3158 30.001 12.9278V27.0878ZM20.001 0.0078125C8.95498 0.0078125 0.000976562 8.96181 0.000976562 20.0078C0.000976562 31.0538 8.95498 40.0078 20.001 40.0078C31.047 40.0078 40.001 31.0538 40.001 20.0078C40.001 8.96181 31.047 0.0078125 20.001 0.0078125Z" fill="#dcdee1"></path>
                                <path fill-rule="evenodd" clip-rule="evenodd" d="M27.4991 12.0859H24.9991C24.7651 12.0859 24.5791 12.2719 24.5791 12.5059V15.0059C24.5791 15.2399 24.7651 15.4259 24.9991 15.4259H27.4991C27.7331 15.4259 27.9191 15.2399 27.9191 15.0059V12.5059C27.9191 12.2719 27.7331 12.0859 27.4991 12.0859Z" fill="#dcdee1"></path>
                            </svg>