<svg width="24" height="24" viewBox="0 0 24 24" fill="none" xmlns="http://www.w3.org/2000/svg">
<path d="M7 11C6.73478 11 6.48043 11.1054 6.29289 11.2929C6.10536 11.4804 6 11.7348 6 12V20C6 20.2652 6.10536 20.5196 6.29289 20.7071C6.48043 20.8946 6.73478 21 7 21H17C17.2652 21 17.5196 20.8946 17.7071 20.7071C17.8946 20.5196 18 20.2652 18 20V12C18 11.7348 17.8946 11.4804 17.7071 11.2929C17.5196 11.1054 17.2652 11 17 11H7ZM7 10H17C17.5304 10 18.0391 10.2107 18.4142 10.5858C18.7893 10.9609 19 11.4696 19 12V20C19 20.5304 18.7893 21.0391 18.4142 21.4142C18.0391 21.7893 17.5304 22 17 22H7C6.46957 22 5.96086 21.7893 5.58579 21.4142C5.21071 21.0391 5 20.5304 5 20V12C5 11.4696 5.21071 10.9609 5.58579 10.5858C5.96086 10.2107 6.46957 10 7 10V10ZM8 10H16V8C16 6.93913 15.5786 5.92172 14.8284 5.17157C14.0783 4.42143 13.0609 4 12 4C10.9391 4 9.92172 4.42143 9.17157 5.17157C8.42143 5.92172 8 6.93913 8 8V10ZM11.5 14.866C11.3094 14.7559 11.1604 14.586 11.0761 14.3827C10.9919 14.1793 10.9771 13.9538 11.0341 13.7412C11.091 13.5285 11.2166 13.3406 11.3912 13.2066C11.5659 13.0726 11.7799 13 12 13C12.2201 13 12.4341 13.0726 12.6088 13.2066C12.7834 13.3406 12.909 13.5285 12.9659 13.7412C13.0229 13.9538 13.0081 14.1793 12.9239 14.3827C12.8396 14.586 12.6906 14.7559 12.5 14.866V16.5C12.5 16.6326 12.4473 16.7598 12.3536 16.8536C12.2598 16.9473 12.1326 17 12 17C11.8674 17 11.7402 16.9473 11.6464 16.8536C11.5527 16.7598 11.5 16.6326 11.5 16.5V14.866ZM12 3C13.3261 3 14.5979 3.52678 15.5355 4.46447C16.4732 5.40215 17 6.67392 17 8V11H7V8C7 6.67392 7.52678 5.40215 8.46447 4.46447C9.40215 3.52678 10.6739 3 12 3V3Z" fill="white"/>
</svg>
