<svg width="40" height="41" viewBox="0 0 40 41" fill="none" xmlns="http://www.w3.org/2000/svg">
                                <path fill-rule="evenodd" clip-rule="evenodd" d="M27.8165 16.3792V16.8572C27.8165 21.6752 24.1525 27.2292 17.4525 27.2292C15.3945 27.2292 13.4585 26.7792 11.8525 25.7452C12.1385 25.7892 12.4265 25.8072 12.7205 25.8072C14.4225 25.8072 16.0105 25.0692 17.2445 24.0792C15.6645 24.0612 14.3005 22.9852 13.8485 21.5432C14.0745 21.5872 14.3005 21.6132 14.5265 21.6132C14.8565 21.6132 15.1865 21.5692 15.4985 21.4832C13.8325 21.1532 12.5725 19.6772 12.5725 17.9072V17.8632C13.0685 18.1332 13.6245 18.2972 14.2225 18.3152C13.2325 17.6552 12.5905 16.5432 12.5905 15.2932C12.5905 14.6172 12.7825 14.0612 13.0865 13.5232C14.9005 15.7272 17.5725 17.0992 20.5945 17.2652C20.5345 17.0032 20.5165 16.7092 20.5165 16.4232C20.5165 14.4092 22.1385 12.7852 24.1525 12.7852C25.2045 12.7852 26.1505 13.2372 26.8365 13.9312C27.6525 13.7672 28.4405 13.4632 29.1365 13.0452C28.8665 13.8972 28.7725 13.9952 27.9865 14.7472C28.7325 14.6612 28.7325 14.6612 29.6305 14.4872C29.1365 15.2332 28.5205 15.8672 27.8165 16.3792ZM20.001 0.0078125C8.95498 0.0078125 0.000976562 8.96181 0.000976562 20.0078C0.000976562 31.0538 8.95498 40.0078 20.001 40.0078C31.047 40.0078 40.001 31.0538 40.001 20.0078C40.001 8.96181 31.047 0.0078125 20.001 0.0078125Z" fill="#dcdee1"></path>
                            </svg>